<svg width="41" height="40" viewBox="0 0 41 40" fill="none" xmlns="http://www.w3.org/2000/svg">
<path fill-rule="evenodd" clip-rule="evenodd" d="M20.5215 0C31.5672 0 40.5215 8.9543 40.5215 20C40.5215 31.0457 31.5672 40 20.5215 40C9.47579 40 0.521484 31.0457 0.521484 20C0.521484 8.9543 9.47579 0 20.5215 0ZM19.7986 1.49659C17.517 1.81769 15.3444 3.65108 13.6579 6.7174C13.1687 7.60683 12.7273 8.58946 12.3426 9.65044C14.6358 9.07417 17.1549 8.73442 19.7986 8.68187V1.49659ZM10.6523 10.1308C11.1306 8.62958 11.7158 7.2484 12.3911 6.02065C13.2271 4.50059 14.2193 3.18795 15.3372 2.17977C9.25828 3.94523 4.46671 8.73679 2.70126 14.8157C3.70943 13.6978 5.02208 12.7056 6.54214 11.8696C7.76989 11.1943 9.15106 10.6091 10.6523 10.1308ZM10.1719 11.8211C9.59565 14.1143 9.25591 16.6334 9.20336 19.2771H2.01807C2.33918 16.9954 4.17257 14.8228 7.23889 13.1364C8.12832 12.6472 9.11095 12.2058 10.1719 11.8211ZM10.6495 19.2771C10.7092 16.392 11.1245 13.6834 11.8117 11.2902C14.2049 10.603 16.9136 10.1876 19.7986 10.1279V13.2508C18.7223 16.0062 16.5271 18.2012 13.7716 19.2771H10.6495ZM9.20336 20.7229H2.01807C2.33918 23.0046 4.17257 25.1771 7.23889 26.8636C8.12832 27.3528 9.11095 27.7942 10.1719 28.1789C9.59565 25.8857 9.25591 23.3666 9.20336 20.7229ZM11.8117 28.7098C11.1245 26.3166 10.7092 23.608 10.6495 20.7229H13.7716C16.5271 21.7988 18.7224 23.9938 19.7986 26.7492V29.8721C16.9136 29.8124 14.2049 29.397 11.8117 28.7098ZM10.6523 29.8692C9.15106 29.3909 7.76989 28.8057 6.54214 28.1304C5.02208 27.2944 3.70943 26.3022 2.70126 25.1843C4.46671 31.2632 9.25828 36.0548 15.3372 37.8202C14.2193 36.812 13.2271 35.4994 12.3911 33.9793C11.7158 32.7516 11.1306 31.3704 10.6523 29.8692ZM19.7986 38.5034C17.517 38.1823 15.3444 36.3489 13.6579 33.2826C13.1687 32.3932 12.7273 31.4105 12.3426 30.3496C14.6358 30.9258 17.1549 31.2656 19.7986 31.3181V38.5034ZM25.7058 37.8202C26.8237 36.812 27.8159 35.4994 28.652 33.9793C29.3272 32.7516 29.9124 31.3704 30.3907 29.8692C31.8919 29.3909 33.2731 28.8057 34.5009 28.1304C36.0209 27.2944 37.3336 26.3022 38.3417 25.1843C36.5763 31.2632 31.7847 36.0548 25.7058 37.8202ZM28.7004 30.3496C28.3157 31.4105 27.8743 32.3932 27.3851 33.2826C25.6987 36.3489 23.5261 38.1823 21.2444 38.5034V31.3181C23.8881 31.2656 26.4072 30.9258 28.7004 30.3496ZM30.8711 28.1789C31.932 27.7942 32.9147 27.3528 33.8041 26.8636C36.8704 25.1771 38.7038 23.0046 39.0249 20.7229H31.8396C31.7871 23.3666 31.4473 25.8857 30.8711 28.1789ZM30.3936 20.7229C30.3339 23.608 29.9185 26.3166 29.2313 28.7098C26.8381 29.397 24.1295 29.8124 21.2444 29.8721V26.7515C22.3203 23.9951 24.516 21.7991 27.2723 20.7229H30.3936ZM31.8396 19.2771H39.0249C38.7038 16.9954 36.8704 14.8228 33.8041 13.1364C32.9147 12.6472 31.932 12.2058 30.8711 11.8211C31.4473 14.1143 31.7871 16.6334 31.8396 19.2771ZM29.2313 11.2902C29.9185 13.6834 30.3339 16.392 30.3936 19.2771H27.2723C24.516 18.2009 22.3203 16.0049 21.2444 13.2485V10.1279C24.1295 10.1876 26.8381 10.603 29.2313 11.2902ZM30.3907 10.1308C31.8919 10.6091 33.2731 11.1943 34.5009 11.8696C36.0209 12.7056 37.3336 13.6978 38.3417 14.8157C36.5763 8.73679 31.7847 3.94523 25.7058 2.17977C26.8237 3.18795 27.8159 4.50059 28.652 6.02065C29.3272 7.2484 29.9124 8.62958 30.3907 10.1308ZM21.2444 1.49659C23.5261 1.81769 25.6987 3.65108 27.3851 6.7174C27.8743 7.60684 28.3157 8.58946 28.7004 9.65044C26.4072 9.07417 23.8881 8.73442 21.2444 8.68187V1.49659Z" fill="#0C6DFF"/>
</svg>
